<?xml version="1.0" encoding="UTF-8" standalone="no"?>
<!DOCTYPE svg PUBLIC "-//W3C//DTD SVG 1.1//EN" "http://www.w3.org/Graphics/SVG/1.1/DTD/svg11.dtd">
<svg width="100%" height="100%" viewBox="0 0 400 433" version="1.1" xmlns="http://www.w3.org/2000/svg" xmlns:xlink="http://www.w3.org/1999/xlink" xml:space="preserve" xmlns:serif="http://www.serif.com/" style="fill-rule:evenodd;clip-rule:evenodd;stroke-linejoin:round;stroke-miterlimit:1.41421;">
    <g id="path4" transform="matrix(0.422316,-0.906449,0.906449,0.422316,-60.3952,251.279)">
        <path d="M166.4,1.2C166.4,1.86 166.226,2.4 166.014,2.4C165.425,2.4 164.772,3.862 165.044,4.571C165.177,4.917 165.536,5.2 165.843,5.2C166.298,5.2 166.4,6.479 166.4,12.173C166.4,18.795 166.44,19.159 167.2,19.4C167.926,19.63 168,20.005 168,23.427C168,26.667 168.113,27.313 168.8,28C169.46,28.66 169.6,29.333 169.6,31.837C169.6,34.538 169.689,34.898 170.4,35.084C171.128,35.275 171.2,35.63 171.2,39.047C171.2,42.533 171.257,42.8 172,42.8C172.741,42.8 172.8,43.067 172.8,46.386C172.8,49.562 172.891,50.021 173.6,50.4C174.289,50.768 174.392,51.202 174.34,53.514C174.307,54.991 174.205,55.705 174.113,55.1C174.021,54.489 173.692,54 173.373,54C173.058,54 172.8,53.713 172.8,53.363C172.8,53.012 172.44,52.631 172,52.516C171.394,52.357 171.2,51.97 171.2,50.916C171.2,49.862 171.006,49.475 170.4,49.316C169.957,49.2 169.6,48.77 169.6,48.353C169.6,47.939 169.24,47.24 168.8,46.8C168.36,46.36 168,45.713 168,45.363C168,45.012 167.64,44.631 167.2,44.516C166.599,44.359 166.4,43.97 166.4,42.953C166.4,41.867 166.242,41.6 165.6,41.6C165.067,41.6 164.8,41.333 164.8,40.8C164.8,40.267 164.533,40 164,40C163.333,40 163.2,39.733 163.2,38.4C163.2,37.067 163.067,36.8 162.4,36.8C161.867,36.8 161.6,36.533 161.6,36C161.6,35.467 161.333,35.2 160.8,35.2C160.278,35.2 160,34.933 160,34.433C160,33.241 159.569,32.4 158.957,32.4C158.651,32.4 158.4,32.046 158.4,31.614C158.4,31.182 158.04,30.635 157.6,30.4C157.16,30.165 156.8,29.708 156.8,29.386C156.8,29.064 156.53,28.8 156.2,28.8C155.87,28.8 155.6,28.542 155.6,28.227C155.6,27.912 155.257,27.545 154.837,27.412C154.417,27.279 153.979,26.923 153.864,26.622C153.749,26.322 153.09,25.951 152.4,25.8C151.71,25.649 151.049,25.272 150.93,24.962C150.514,23.877 143.597,24.206 142.5,25.363C141.4,26.524 141.12,33.041 142.153,33.437C142.457,33.554 142.819,34.358 142.958,35.225C143.12,36.24 143.421,36.8 143.805,36.8C144.199,36.8 144.4,37.204 144.4,37.997C144.4,38.76 144.69,39.374 145.2,39.693C145.734,40.026 146,40.626 146,41.496C146,42.533 146.164,42.8 146.8,42.8C147.467,42.8 147.6,43.067 147.6,44.4C147.6,45.733 147.733,46 148.4,46C149.067,46 149.2,46.267 149.2,47.6C149.2,48.933 149.333,49.2 150,49.2C150.667,49.2 150.8,49.467 150.8,50.8C150.8,52.133 150.667,52.4 150,52.4C149.467,52.4 149.2,52.133 149.2,51.6C149.2,51.067 148.933,50.8 148.4,50.8C147.867,50.8 147.6,50.533 147.6,50C147.6,49.467 147.333,49.2 146.8,49.2C146.267,49.2 146,48.933 146,48.4C146,47.867 145.733,47.6 145.2,47.6C144.703,47.6 144.4,47.333 144.4,46.896C144.4,46.509 144.04,45.968 143.6,45.693C143.148,45.41 142.8,44.76 142.8,44.197C142.8,43.467 142.586,43.2 142,43.2C141.467,43.2 141.2,42.933 141.2,42.4C141.2,41.956 140.933,41.6 140.6,41.6C140.27,41.6 140,41.313 140,40.963C140,40.612 139.64,40.231 139.2,40.116C138.757,40 138.4,39.57 138.4,39.153C138.4,38.739 138.04,38.04 137.6,37.6C137.16,37.16 136.8,36.513 136.8,36.163C136.8,35.812 136.44,35.431 136,35.316C135.557,35.2 135.2,34.77 135.2,34.353C135.2,33.867 134.917,33.6 134.4,33.6C133.867,33.6 133.6,33.333 133.6,32.8C133.6,32.267 133.333,32 132.8,32C132.172,32 132,31.733 132,30.763C132,29.862 131.783,29.468 131.2,29.316C130.757,29.2 130.4,28.77 130.4,28.353C130.4,27.867 130.117,27.6 129.6,27.6C129.067,27.6 128.8,27.333 128.8,26.8C128.8,26.267 128.533,26 128,26C127.467,26 127.2,25.733 127.2,25.2C127.2,24.667 126.933,24.4 126.4,24.4C125.867,24.4 125.6,24.133 125.6,23.6C125.6,23.067 125.333,22.8 124.8,22.8C124.267,22.8 124,22.533 124,22C124,21.489 123.733,21.2 123.262,21.2C122.856,21.2 122.198,20.84 121.8,20.4C120.71,19.196 114.8,19.196 114.8,20.4C114.8,20.84 114.551,21.2 114.247,21.2C112.895,21.2 112.658,29.933 114,30.284C114.743,30.478 114.8,30.83 114.8,35.214C114.8,40.371 114.955,41.187 115.943,41.225C116.395,41.243 116.32,41.363 115.7,41.612C115.052,41.873 114.8,42.304 114.8,43.154L114.8,44.335L109.767,44.467C105.533,44.579 104.653,44.711 104.223,45.3C103.898,45.745 103.181,46 102.256,46C101.067,46 100.8,46.147 100.8,46.8C100.8,47.333 100.533,47.6 100,47.6C99.467,47.6 99.2,47.867 99.2,48.4C99.2,48.933 98.933,49.2 98.4,49.2C97.64,49.2 97.6,49.467 97.6,54.6C97.6,59.733 97.64,60 98.4,60C99.067,60 99.2,60.267 99.2,61.6C99.2,62.933 99.333,63.2 100,63.2C100.667,63.2 100.8,63.467 100.8,64.8C100.8,66.133 100.933,66.4 101.6,66.4C102.245,66.4 102.4,66.667 102.4,67.773C102.4,68.795 102.605,69.211 103.2,69.4C103.64,69.54 104,69.974 104,70.365C104,70.756 104.36,71.402 104.8,71.8C106.004,72.89 106.004,78.8 104.8,78.8C104.276,78.8 104,79.067 104,79.573C104,79.998 103.64,80.46 103.2,80.6C102.529,80.813 102.4,81.205 102.4,83.027C102.4,84.933 102.302,85.2 101.6,85.2C100.824,85.2 100.8,85.467 100.8,94.237C100.8,102.938 100.83,103.283 101.6,103.484C102.632,103.754 102.868,113.6 101.843,113.6C101.536,113.6 101.182,113.87 101.055,114.2C100.929,114.53 100.459,114.8 100.013,114.8C99.483,114.8 99.2,115.063 99.2,115.553C99.2,115.97 98.843,116.4 98.4,116.516C97.72,116.694 97.6,117.062 97.6,118.963C97.6,120.608 97.453,121.2 97.043,121.2C96.071,121.2 96,122.187 96,135.633C96,148.267 95.968,148.832 95.2,149.6C94.422,150.378 94.4,150.93 94.405,169.9C94.411,189.796 94.48,191.2 95.447,191.2C95.826,191.2 96,191.704 96,192.8C96,194.107 96.14,194.4 96.763,194.4C97.674,194.4 97.881,196.379 97.664,203.023C97.56,206.182 97.396,207.2 96.991,207.2C96.695,207.2 96.335,207.576 96.189,208.035C95.795,209.275 96.336,211.6 97.018,211.6C97.505,211.6 97.6,212.721 97.6,218.437C97.6,224.938 97.639,225.285 98.4,225.484C99.131,225.675 99.2,226.03 99.2,229.614C99.2,233.868 99.387,234.8 100.243,234.8C100.673,234.8 100.8,235.531 100.8,238C100.8,240.933 100.867,241.2 101.6,241.2C102.341,241.2 102.4,241.467 102.4,244.797C102.4,247.96 102.496,248.453 103.2,248.893C103.843,249.294 104,249.826 104,251.6C104,253.374 104.157,253.906 104.8,254.307C105.467,254.723 105.6,255.24 105.6,257.403C105.6,259.733 105.682,260 106.4,260C107.111,260 107.2,260.267 107.2,262.4C107.2,264.177 107.344,264.8 107.753,264.8C108.405,264.8 108.787,266.011 108.795,268.1C108.798,269.101 108.982,269.6 109.348,269.6C109.704,269.6 109.97,270.257 110.107,271.476C110.226,272.527 110.6,273.557 110.959,273.82C111.318,274.082 111.6,274.857 111.6,275.582C111.6,276.538 111.808,276.929 112.4,277.084C113.027,277.248 113.2,277.63 113.2,278.847C113.2,280.133 113.337,280.4 114,280.4C114.658,280.4 114.8,280.667 114.8,281.904C114.8,282.974 115.03,283.551 115.6,283.907C116.102,284.221 116.4,284.84 116.4,285.571C116.4,287.138 116.77,288 117.443,288C117.816,288 118,288.475 118,289.437C118,290.538 118.187,290.924 118.8,291.084C119.427,291.248 119.6,291.63 119.6,292.847C119.6,294.133 119.737,294.4 120.4,294.4C121.067,294.4 121.2,294.667 121.2,296C121.2,297.333 121.333,297.6 122,297.6C122.667,297.6 122.8,297.867 122.8,299.2C122.8,300.533 122.933,300.8 123.6,300.8C124.267,300.8 124.4,301.067 124.4,302.4C124.4,303.556 124.567,304 125,304C125.365,304 125.6,304.372 125.6,304.95C125.6,306.752 126.102,308.4 126.65,308.4C127.104,308.4 127.2,310.359 127.2,319.567C127.2,331.019 127.282,332 128.243,332C128.645,332 128.8,332.557 128.8,333.997C128.8,335.56 128.974,336.102 129.6,336.493C130.096,336.803 130.4,337.426 130.4,338.134C130.4,338.938 130.636,339.337 131.2,339.484C131.643,339.6 132,340.03 132,340.447C132,340.933 132.283,341.2 132.8,341.2C133.467,341.2 133.6,341.467 133.6,342.8C133.6,344.133 133.733,344.4 134.4,344.4C135.063,344.4 135.2,344.667 135.2,345.953C135.2,347.17 135.027,347.552 134.4,347.716C133.96,347.831 133.6,348.212 133.6,348.563C133.6,348.933 133.265,349.2 132.8,349.2C132.267,349.2 132,349.467 132,350C132,350.661 131.733,350.8 130.462,350.8C129.432,350.8 128.685,351.064 128.2,351.6C127.715,352.136 126.968,352.4 125.938,352.4C124.933,352.4 124.123,352.677 123.6,353.2C122.978,353.822 122.267,354 120.4,354C118.267,354 118,354.089 118,354.8C118,355.53 117.733,355.6 114.963,355.6C112.262,355.6 111.902,355.689 111.716,356.4C111.527,357.124 111.17,357.2 107.973,357.2C105.429,357.2 104.35,357.351 104.12,357.741C103.9,358.113 102.488,358.359 99.603,358.53C96.517,358.713 95.287,358.94 94.958,359.389C94.599,359.881 93.528,360 89.452,360C84.887,360 84.325,360.078 83.707,360.8C83.052,361.565 82.527,361.6 71.787,361.6C61.104,361.6 60.509,361.639 59.692,362.4C58.935,363.105 58.281,363.2 54.179,363.2C49.862,363.2 49.51,363.258 49.316,364C49.131,364.707 48.77,364.8 46.2,364.8C43.63,364.8 43.269,364.893 43.084,365.6C42.918,366.236 42.538,366.4 41.237,366.4C40.133,366.4 39.339,366.661 38.8,367.2C38.36,367.64 37.773,368 37.496,368C37.219,368 36.768,368.36 36.493,368.8C36.174,369.31 35.56,369.6 34.797,369.6C33.867,369.6 33.6,369.778 33.6,370.4C33.6,371.02 33.333,371.2 32.414,371.2C31.638,371.2 31.08,371.476 30.8,372C30.565,372.44 30.018,372.8 29.586,372.8C29.067,372.8 28.8,373.071 28.8,373.6C28.8,374.133 28.533,374.4 28,374.4C27.56,374.4 27.2,374.656 27.2,374.968C27.2,375.281 26.648,375.658 25.973,375.806C25.298,375.954 24.651,376.322 24.536,376.622C24.421,376.923 23.983,377.279 23.563,377.412C23.143,377.545 22.8,377.912 22.8,378.227C22.8,378.542 22.44,378.8 22,378.8C21.467,378.8 21.2,379.067 21.2,379.6C21.2,380.133 20.933,380.4 20.4,380.4C19.867,380.4 19.6,380.667 19.6,381.2C19.6,381.733 19.333,382 18.8,382C18.267,382 18,382.267 18,382.8C18,383.333 17.733,383.6 17.2,383.6C16.667,383.6 16.4,383.867 16.4,384.4C16.4,384.933 16.133,385.2 15.6,385.2C15.067,385.2 14.8,385.467 14.8,386C14.8,386.533 14.533,386.8 14,386.8C13.467,386.8 13.2,387.067 13.2,387.6C13.2,388.133 12.933,388.4 12.4,388.4C11.867,388.4 11.6,388.667 11.6,389.2C11.6,389.733 11.333,390 10.8,390C10.267,390 10,390.267 10,390.8C10,391.244 9.733,391.6 9.4,391.6C9.07,391.6 8.8,391.849 8.8,392.153C8.8,392.458 8.44,392.801 8,392.916C7.56,393.031 7.2,393.412 7.2,393.763C7.2,394.113 6.926,394.4 6.59,394.4C6.255,394.4 5.809,394.85 5.6,395.4C5.391,395.95 4.945,396.4 4.61,396.4C4.18,396.4 4,396.812 4,397.8C4,398.933 3.848,399.2 3.2,399.2C2.7,399.2 2.4,399.467 2.4,399.911C2.4,400.302 2.04,400.93 1.6,401.307C0.899,401.907 0.8,402.487 0.8,405.996C0.8,409.733 0.853,410 1.6,410C3.089,410 2.726,413.035 1.2,413.34L0,413.58L0,418.59C0,421.346 0.16,423.6 0.357,423.6C0.553,423.6 0.826,424.05 0.964,424.6C1.172,425.427 1.456,425.6 2.608,425.6C3.733,425.6 4,425.753 4,426.4C4,426.933 4.267,427.2 4.8,427.2C5.333,427.2 5.6,427.467 5.6,428C5.6,428.667 5.867,428.8 7.2,428.8C8.533,428.8 8.8,428.933 8.8,429.6C8.8,430.303 9.067,430.4 11,430.4C12.933,430.4 13.2,430.497 13.2,431.2C13.2,431.911 13.467,432 15.6,432C16.933,432 18,432.178 18,432.4C18,432.658 22.333,432.8 30.2,432.8C38.067,432.8 42.4,432.658 42.4,432.4C42.4,432.174 43.533,432 45,432C47.067,432 47.764,431.836 48.4,431.2C48.991,430.609 49.733,430.4 51.237,430.4C52.938,430.4 53.309,430.268 53.484,429.6C53.647,428.976 54.03,428.8 55.22,428.8C56.395,428.8 56.805,428.616 57,428C57.213,427.329 57.605,427.2 59.427,427.2C61.333,427.2 61.6,427.102 61.6,426.4C61.6,425.738 61.867,425.6 63.146,425.6C64.086,425.6 65.091,425.287 65.709,424.8C66.269,424.36 67.288,424 67.976,424C68.717,424 69.319,423.756 69.455,423.4C69.586,423.059 70.183,422.8 70.839,422.8C71.56,422.8 72.181,422.5 72.493,422C72.826,421.466 73.426,421.2 74.296,421.2C75.333,421.2 75.6,421.036 75.6,420.4C75.6,419.742 75.867,419.6 77.104,419.6C78.174,419.6 78.751,419.37 79.107,418.8C79.416,418.305 80.04,418 80.741,418C81.368,418 82.2,417.642 82.6,417.2C82.998,416.76 83.731,416.4 84.229,416.4C85.551,416.4 86.4,415.992 86.4,415.357C86.4,414.984 86.875,414.8 87.837,414.8C88.938,414.8 89.324,414.613 89.484,414C89.643,413.394 90.03,413.2 91.084,413.2C92.138,413.2 92.525,413.006 92.684,412.4C92.843,411.794 93.23,411.6 94.284,411.6C95.338,411.6 95.725,411.406 95.884,410.8C96.043,410.194 96.43,410 97.484,410C98.538,410 98.925,409.806 99.084,409.2C99.242,408.597 99.63,408.4 100.659,408.4C101.493,408.4 102.113,408.171 102.251,407.811C102.376,407.487 103.077,407.109 103.811,406.972C104.544,406.834 105.241,406.469 105.36,406.161C105.478,405.852 105.926,405.6 106.355,405.6C107.559,405.6 108.4,405.171 108.4,404.557C108.4,404.184 108.875,404 109.837,404C110.938,404 111.324,403.813 111.484,403.2C111.648,402.573 112.03,402.4 113.247,402.4C114.533,402.4 114.8,402.263 114.8,401.6C114.8,400.939 115.067,400.8 116.338,400.8C117.368,400.8 118.115,400.536 118.6,400C119.077,399.473 119.832,399.2 120.815,399.2C121.97,399.2 122.354,399.02 122.516,398.4C122.691,397.73 123.062,397.6 124.8,397.6C126.538,397.6 126.909,397.47 127.084,396.8C127.263,396.114 127.63,396 129.647,396C131.467,396 132.181,395.819 132.8,395.2C134.024,393.976 144.212,393.976 144.6,395.2C144.834,395.938 145.205,396 149.38,396C153.57,396 153.922,396.059 154.116,396.8C154.313,397.555 154.662,397.6 160.316,397.6C165.97,397.6 166.318,397.645 166.516,398.4C166.844,399.656 197.156,399.656 197.484,398.4C197.678,397.659 198.03,397.6 202.247,397.6C206.533,397.6 206.8,397.553 206.8,396.8C206.8,396.089 207.067,396 209.2,396C211.333,396 211.6,395.911 211.6,395.2C211.6,394.533 211.867,394.4 213.2,394.4C214.517,394.4 214.8,394.263 214.8,393.624C214.8,393.016 215.125,392.821 216.3,392.724C217.602,392.616 217.817,392.455 217.927,391.5C217.996,390.895 218.401,390.213 218.827,389.986C219.252,389.758 219.6,389.218 219.6,388.786C219.6,388.354 219.862,388 220.182,388C220.53,388 220.869,387.438 221.026,386.6C221.214,385.599 221.5,385.2 222.029,385.2C222.436,385.2 223.091,384.869 223.484,384.464C223.878,384.059 224.515,383.615 224.9,383.477C225.285,383.338 225.6,382.949 225.6,382.613C225.6,382.267 225.948,382 226.4,382C226.933,382 227.2,381.733 227.2,381.2C227.2,380.578 227.467,380.4 228.397,380.4C229.16,380.4 229.774,380.11 230.093,379.6C230.368,379.16 230.909,378.8 231.296,378.8C231.733,378.8 232,378.497 232,378C232,377.355 232.267,377.2 233.373,377.2C234.395,377.2 234.811,376.995 235,376.4C235.177,375.842 235.605,375.6 236.413,375.6C237.162,375.6 237.723,375.317 238,374.8C238.235,374.36 238.769,374 239.186,374C239.602,374 240.213,373.73 240.543,373.4C240.873,373.07 241.443,372.8 241.809,372.8C242.175,372.8 242.569,372.44 242.684,372C242.848,371.373 243.23,371.2 244.447,371.2C245.733,371.2 246,371.063 246,370.4C246,369.748 246.267,369.6 247.437,369.6C248.538,369.6 248.924,369.413 249.084,368.8C249.243,368.194 249.63,368 250.684,368C251.738,368 252.125,367.806 252.284,367.2C252.434,366.626 252.83,366.4 253.684,366.4C254.538,366.4 254.934,366.174 255.084,365.6C255.204,365.14 255.63,364.8 256.084,364.8C256.538,364.8 256.964,364.46 257.084,364C257.241,363.399 257.63,363.2 258.647,363.2C259.733,363.2 260,363.042 260,362.4C260,361.748 260.267,361.6 261.437,361.6C262.538,361.6 262.924,361.413 263.084,360.8C263.2,360.357 263.63,360 264.047,360C264.533,360 264.8,359.717 264.8,359.2C264.8,358.554 265.067,358.4 266.186,358.4C267.162,358.4 267.698,358.164 268,357.6C268.235,357.16 268.692,356.8 269.014,356.8C269.336,356.8 269.6,356.55 269.6,356.245C269.6,355.926 270.198,355.577 271,355.426C271.838,355.269 272.4,354.93 272.4,354.582C272.4,354.262 272.739,354 273.153,354C273.568,354 273.994,353.664 274.102,353.254C274.227,352.775 274.815,352.411 275.748,352.236C276.627,352.071 277.2,351.734 277.2,351.382C277.2,351.062 277.56,350.8 278,350.8C278.533,350.8 278.8,350.533 278.8,350C278.8,349.467 279.067,349.2 279.6,349.2C280.133,349.2 280.4,348.933 280.4,348.4C280.4,347.878 280.667,347.6 281.167,347.6C282.359,347.6 283.2,347.169 283.2,346.557C283.2,346.251 283.577,346 284.037,346C284.538,346 284.959,345.679 285.084,345.2C285.2,344.757 285.63,344.4 286.047,344.4C286.533,344.4 286.8,344.117 286.8,343.6C286.8,343.067 287.067,342.8 287.6,342.8C288.133,342.8 288.4,342.533 288.4,342C288.4,341.352 288.667,341.2 289.8,341.2C290.749,341.2 291.2,341.015 291.2,340.627C291.2,340.312 291.56,339.94 292,339.8C292.44,339.66 292.8,339.288 292.8,338.973C292.8,338.658 293.16,338.4 293.6,338.4C294.133,338.4 294.4,338.133 294.4,337.6C294.4,337.089 294.667,336.8 295.138,336.8C295.544,336.8 296.202,336.44 296.6,336C296.998,335.56 297.673,335.2 298.099,335.2C298.538,335.2 298.966,334.853 299.084,334.4C299.2,333.957 299.63,333.6 300.047,333.6C300.533,333.6 300.8,333.317 300.8,332.8C300.8,332.176 301.067,332 302.013,332C302.748,332 303.32,331.752 303.467,331.369C303.6,331.023 304.135,330.577 304.655,330.379C305.175,330.182 305.6,329.745 305.6,329.41C305.6,328.98 306.012,328.8 307,328.8C308.133,328.8 308.4,328.648 308.4,328C308.4,327.295 308.667,327.2 310.637,327.2C312.538,327.2 312.906,327.08 313.084,326.4C313.248,325.773 313.63,325.6 314.847,325.6C315.915,325.6 316.4,325.424 316.4,325.038C316.4,324.665 317.084,324.381 318.428,324.196C319.544,324.043 320.545,323.687 320.653,323.406C320.761,323.124 321.558,322.781 322.425,322.642C323.44,322.48 324,322.179 324,321.795C324,321.379 324.431,321.2 325.437,321.2C326.538,321.2 326.924,321.013 327.084,320.4C327.248,319.773 327.63,319.6 328.847,319.6C330.133,319.6 330.4,319.463 330.4,318.8C330.4,318.133 330.667,318 332,318C333.333,318 333.6,317.867 333.6,317.2C333.6,316.542 333.867,316.4 335.104,316.4C336.174,316.4 336.751,316.17 337.107,315.6C337.425,315.09 338.04,314.8 338.8,314.8C339.56,314.8 340.175,314.51 340.493,314C340.826,313.467 341.426,313.2 342.293,313.2C343.16,313.2 343.76,312.933 344.093,312.4C344.431,311.858 345.026,311.6 345.934,311.6C346.938,311.6 347.327,311.399 347.484,310.8C347.643,310.194 348.03,310 349.084,310C350.138,310 350.525,309.806 350.684,309.2C350.842,308.597 351.23,308.4 352.259,308.4C353.104,308.4 353.713,308.171 353.855,307.8C353.982,307.47 354.518,307.2 355.047,307.2C355.575,307.2 356.316,306.84 356.693,306.4C357.119,305.902 357.873,305.6 358.689,305.6C359.733,305.6 360,305.437 360,304.8C360,304.143 360.268,303.999 361.5,303.995C363.589,303.987 364.8,303.605 364.8,302.953C364.8,302.585 365.28,302.4 366.237,302.4C367.338,302.4 367.724,302.213 367.884,301.6C368.037,301.016 368.432,300.799 369.347,300.795C371.203,300.786 372.4,300.378 372.4,299.753C372.4,299.374 372.904,299.2 374,299.2C375.333,299.2 375.6,299.067 375.6,298.4C375.6,297.689 375.867,297.6 378,297.6C380.133,297.6 380.4,297.511 380.4,296.8C380.4,296.089 380.667,296 382.804,296C384.713,296 385.349,295.835 385.893,295.2C386.506,294.484 387.073,294.4 391.289,294.4C395.733,294.4 396,294.355 396,293.6C396,292.933 396.267,292.8 397.6,292.8C398.933,292.8 399.2,292.667 399.2,292C399.2,291.56 399.38,291.2 399.6,291.2C399.831,291.2 400,289.933 400,288.2C400,286.467 399.831,285.2 399.6,285.2C399.38,285.2 399.2,284.84 399.2,284.4C399.2,283.873 398.933,283.6 398.42,283.6C397.991,283.6 397.475,283.306 397.274,282.946C397.035,282.52 396.175,282.222 394.798,282.09C393.492,281.965 392.404,281.604 391.944,281.144C391.396,280.596 390.61,280.4 388.963,280.4C387.332,280.4 386.451,280.183 385.709,279.6C384.979,279.026 384.086,278.8 382.546,278.8C380.978,278.8 380.4,278.65 380.4,278.243C380.4,277.504 379.514,277.2 377.367,277.2C376.09,277.2 375.6,277.039 375.6,276.62C375.6,276.208 374.905,275.961 373.2,275.768C371.566,275.583 370.8,275.322 370.8,274.948C370.8,274.551 370.201,274.4 368.627,274.4C366.805,274.4 366.413,274.271 366.2,273.6C365.989,272.935 365.595,272.8 363.869,272.8C362.226,272.8 361.688,272.633 361.293,272C360.878,271.336 360.36,271.2 358.243,271.2C356.03,271.2 355.666,271.094 355.484,270.4C355.293,269.671 354.938,269.6 351.484,269.6C348.03,269.6 347.675,269.529 347.484,268.8C347.163,267.571 335.629,267.571 334.4,268.8C333.696,269.504 333.067,269.6 329.163,269.6C325.062,269.6 324.709,269.661 324.516,270.4C324.325,271.129 323.97,271.2 320.516,271.2C317.062,271.2 316.707,271.271 316.516,272C316.322,272.741 315.97,272.8 311.753,272.8C307.467,272.8 307.2,272.847 307.2,273.6C307.2,274.37 306.933,274.4 300.2,274.4C294.244,274.4 293.2,274.49 293.2,275C293.2,275.513 292.044,275.6 285.2,275.6C278.356,275.6 277.2,275.513 277.2,275C277.2,274.667 276.844,274.4 276.4,274.4C275.671,274.4 275.6,274.133 275.6,271.387C275.6,269.079 275.46,268.321 275,268.145C274.644,268.008 274.399,267.404 274.398,266.657C274.395,264.98 273.657,262.4 273.181,262.4C272.972,262.4 272.8,261.303 272.8,259.963C272.8,257.862 272.69,257.496 272,257.316C271.307,257.135 271.2,256.77 271.2,254.586C271.2,251.707 270.95,250.8 270.157,250.8C269.733,250.8 269.6,250.121 269.6,247.963C269.6,245.515 269.496,245.098 268.843,244.927C268.212,244.762 268.06,244.263 267.928,241.921C267.811,239.864 267.586,238.979 267.084,238.612C266.579,238.242 266.4,237.523 266.4,235.856C266.4,233.867 266.305,233.6 265.6,233.6C264.872,233.6 264.8,233.333 264.8,230.627C264.8,228.005 264.705,227.624 264,227.4C263.3,227.178 263.2,226.795 263.2,224.336C263.2,221.862 263.104,221.5 262.4,221.316C261.719,221.138 261.6,220.77 261.6,218.85C261.6,217.026 261.446,216.497 260.8,216.093C260.136,215.678 260,215.16 260,213.043C260,210.83 259.894,210.466 259.2,210.284C258.496,210.1 258.4,209.738 258.4,207.28C258.4,205.165 258.254,204.43 257.8,204.255C257.457,204.124 257.2,203.527 257.2,202.863C257.2,200.864 256.723,199.2 256.15,199.2C255.766,199.2 255.6,198.666 255.6,197.433C255.6,195.286 255.296,194.4 254.557,194.4C254.15,194.4 254,193.822 254,192.254C254,190.714 253.774,189.821 253.2,189.091C252.702,188.458 252.4,187.468 252.4,186.47C252.4,184.48 252.08,183.6 251.357,183.6C250.956,183.6 250.8,183.045 250.8,181.614C250.8,180.038 250.635,179.54 250,179.2C249.362,178.858 249.2,178.362 249.2,176.748C249.2,175.062 249.067,174.69 248.4,174.516C247.723,174.339 247.6,173.97 247.6,172.116C247.6,170.262 247.477,169.893 246.8,169.716C246.173,169.552 246,169.17 246,167.953C246,166.933 245.725,166.125 245.2,165.6C244.697,165.097 244.4,164.267 244.4,163.363C244.4,162.262 244.213,161.876 243.6,161.716C243.026,161.566 242.8,161.17 242.8,160.316C242.8,159.662 242.44,158.669 242,158.109C241.513,157.491 241.2,156.486 241.2,155.546C241.2,154.438 241.03,154 240.6,154C240.232,154 240,153.626 240,153.033C240,151.652 239.602,150.8 238.957,150.8C238.563,150.8 238.4,150.272 238.4,149C238.4,147.783 238.161,146.961 237.661,146.461C237.254,146.054 236.816,144.936 236.687,143.975C236.558,143.014 236.171,142.022 235.827,141.77C235.456,141.499 235.2,140.716 235.2,139.856C235.2,138.667 235.053,138.4 234.4,138.4C233.689,138.4 233.6,138.133 233.6,136C233.6,133.867 233.511,133.6 232.8,133.6C232.093,133.6 232,133.333 232,131.296C232,129.426 231.85,128.898 231.2,128.493C230.573,128.101 230.4,127.56 230.4,125.993C230.4,124.487 230.202,123.823 229.6,123.307C228.971,122.769 228.8,122.127 228.8,120.311C228.8,118.267 228.708,118 228,118C227.289,118 227.2,117.733 227.2,115.6C227.2,113.467 227.111,113.2 226.4,113.2C225.671,113.2 225.6,112.933 225.6,110.2C225.6,107.8 225.48,107.2 225,107.2C224.606,107.2 224.4,106.806 224.4,106.05C224.4,104.063 223.921,102.4 223.35,102.4C222.949,102.4 222.8,101.794 222.8,100.163C222.8,98.262 222.68,97.894 222,97.716C221.327,97.54 221.2,97.17 221.2,95.38C221.2,93.605 221.068,93.212 220.4,93C219.74,92.79 219.6,92.395 219.6,90.736C219.6,89.062 219.466,88.69 218.8,88.516C218.18,88.354 218,87.97 218,86.815C218,85.832 217.727,85.077 217.2,84.6C216.658,84.109 216.4,83.368 216.4,82.301C216.4,81.062 216.229,80.68 215.6,80.516C214.994,80.357 214.8,79.97 214.8,78.916C214.8,77.862 214.606,77.475 214,77.316C213.399,77.159 213.2,76.77 213.2,75.753C213.2,74.667 213.042,74.4 212.4,74.4C211.748,74.4 211.6,74.133 211.6,72.963C211.6,71.862 211.413,71.476 210.8,71.316C210.357,71.2 210,70.77 210,70.353C210,69.867 209.717,69.6 209.2,69.6C208.76,69.6 208.4,69.339 208.4,69.021C208.4,68.343 206.695,66.4 206.101,66.4C205.877,66.4 205.599,66.04 205.484,65.6C205.306,64.92 204.938,64.8 203.037,64.8C201.129,64.8 200.8,64.691 200.8,64.062C200.8,63.656 200.44,62.998 200,62.6C199.56,62.202 199.2,61.545 199.2,61.141C199.2,60.737 198.84,60.182 198.4,59.907C197.914,59.604 197.6,58.974 197.6,58.304C197.6,57.467 197.407,57.2 196.8,57.2C196.133,57.2 196,56.933 196,55.6C196,54.533 195.733,53.733 195.2,53.2C194.697,52.697 194.4,51.867 194.4,50.963C194.4,49.862 194.213,49.476 193.6,49.316C193.001,49.159 192.8,48.77 192.8,47.767C192.8,46.838 192.555,46.297 192,46C191.444,45.702 191.2,45.162 191.2,44.229C191.2,43.404 190.968,42.797 190.6,42.655C190.268,42.528 189.998,41.928 189.995,41.313C189.986,39.588 189.561,38.4 188.953,38.4C188.574,38.4 188.4,37.896 188.4,36.8C188.4,35.733 188.133,34.933 187.6,34.4C187.097,33.897 186.8,33.067 186.8,32.163C186.8,31.062 186.613,30.676 186,30.516C185.416,30.363 185.199,29.968 185.195,29.053C185.186,27.197 184.778,26 184.153,26C183.774,26 183.6,25.496 183.6,24.4C183.6,23.067 183.467,22.8 182.8,22.8C182.095,22.8 182,22.533 182,20.563C182,18.662 181.88,18.294 181.2,18.116C180.573,17.952 180.4,17.57 180.4,16.353C180.4,15.067 180.263,14.8 179.6,14.8C178.933,14.8 178.8,14.533 178.8,13.2C178.8,11.867 178.667,11.6 178,11.6C177.334,11.6 177.2,11.333 177.2,10.003C177.2,8.84 176.983,8.271 176.4,7.907C175.863,7.572 175.6,6.974 175.6,6.091C175.6,5.328 175.363,4.684 175.036,4.559C174.726,4.439 174.363,3.905 174.228,3.371C174.094,2.837 173.741,2.4 173.442,2.4C173.144,2.4 172.792,1.86 172.66,1.2L172.42,0L169.41,0L166.4,0L166.4,1.2" style="fill:rgb(232,51,58);"/>
    </g>
</svg>
